# xmcd
#
# Track frame offsets: 
#        150
#        14836
#        28647
#        45222
#        59927
#        72017
#        86532
#        98910
#        107945
#        126053
#        139769
#        154586
#
# Disc length: 2325 seconds
#
# Revision: 4
# Processed by: cddbd v1.5.2PL0 Copyright (c) Steve Scherf et al.
# Submitted via: ExactAudioCopy v0.99pb5
#
DISCID=a109130c
DTITLE=Various Artist - Road Trippin' Blues (Vol. 1) [CD1]
DYEAR=2001
DGENRE=Blues
TTITLE0=John Lee Hooker - Wandering Blues
TTITLE1=Lightnin' Hopkins - Big Car Blues
TTITLE2=Howlin' Wolf - Shake It For Me
TTITLE3=Jimmy Rushing - You Can Depend On Me
TTITLE4=Jimmy Reed - Where Can You Be
TTITLE5=Otis Spann - My Home Is In The Delta
TTITLE6=Big Hill Broonzy - Goin' Down This Road
TTITLE7=Memphis Slim - I'd Take Her To Chicago
TTITLE8=Sonny Terry and Brownie Mcghee - I'm A Stranger Here
TTITLE9=Leadbelly - Roberta
TTITLE10=Muddy Waters - One More Mile
TTITLE11=John Mayhall - Road Show
EXTD=YEAR: 2001
EXTT0=
EXTT1=
EXTT2=
EXTT3=
EXTT4=
EXTT5=
EXTT6=
EXTT7=
EXTT8=
EXTT9=
EXTT10=
EXTT11=
PLAYORDER=
